<svg xmlns="http://www.w3.org/2000/svg" width="120" height="48" viewBox="0 0 120 48">
  <g fill="none" fill-rule="evenodd">
    <path fill="#E02020" d="M35.1,8 L28.6,8 C27.9,8 27.3,8.6 27.3,9.3 L27.3,11.9 L20.8,8 L14.3,8 C13.6,8 13,8.6 13,9.3 L13,11.9 L6.5,8 L0,8 L0,12.6 L6.5,16.5 L6.5,25.4 L13,29.3 L13,38.2 L19.5,42.1 L19.5,38.2 L26,42.1 L26,38.2 L32.5,42.1 L39,42.1 L39,37.5 L32.5,33.6 L32.5,24.7 L26,20.8 L26,11.9 L32.5,16.5 L32.5,20.8 L39,16.9 L39,12.3 L35.1,12.3 L35.1,8 Z M26,20.8 L26,24.7 L19.5,20.8 L19.5,16.9 L26,20.8 Z M19.5,25.4 L19.5,29.3 L13,25.4 L13,21.5 L19.5,25.4 Z"/>
    <path fill="#E02020" d="M55.8,8 L49.3,8 C48.6,8 48,8.6 48,9.3 L48,40.8 C48,41.5 48.6,42.1 49.3,42.1 L55.8,42.1 C56.5,42.1 57.1,41.5 57.1,40.8 L57.1,9.3 C57.1,8.6 56.5,8 55.8,8"/>
    <path fill="#E02020" d="M74.1,8 L67.6,8 C66.9,8 66.3,8.6 66.3,9.3 L66.3,40.8 C66.3,41.5 66.9,42.1 67.6,42.1 L74.1,42.1 C74.8,42.1 75.4,41.5 75.4,40.8 L75.4,9.3 C75.4,8.6 74.8,8 74.1,8"/>
    <path fill="#E02020" d="M92.4,8 L85.9,8 C85.2,8 84.6,8.6 84.6,9.3 L84.6,40.8 C84.6,41.5 85.2,42.1 85.9,42.1 L92.4,42.1 C93.1,42.1 93.7,41.5 93.7,40.8 L93.7,9.3 C93.7,8.6 93.1,8 92.4,8"/>
    <text fill="#FFFFFF" font-family="DIN-Bold, DIN" font-size="14" font-weight="bold">
      <tspan x="1" y="56">.CH</tspan>
    </text>
    <text fill="#FFFFFF" font-family="DIN-Bold, DIN" font-size="8" font-weight="bold">
      <tspan x="62" y="56">CASINO DAVOS</tspan>
    </text>
  </g>
</svg>
