<?xml version="1.0" encoding="UTF-8"?>
<svg width="240" height="48" viewBox="0 0 240 48" fill="none" xmlns="http://www.w3.org/2000/svg">
  <!-- Menu -->
  <g transform="translate(8, 8)">
    <rect width="32" height="32" rx="16" fill="#2D1B69"/>
    <path d="M10 12H22M10 16H22M10 20H22" stroke="#8B5CF6" stroke-width="1.5"/>
  </g>
  
  <!-- Recherche -->
  <g transform="translate(56, 8)">
    <rect width="32" height="32" rx="16" fill="#2D1B69"/>
    <circle cx="14" cy="14" r="4" stroke="#8B5CF6" stroke-width="1.5"/>
    <path d="M17 17L22 22" stroke="#8B5CF6" stroke-width="1.5"/>
  </g>
  
  <!-- Notifications -->
  <g transform="translate(104, 8)">
    <rect width="32" height="32" rx="16" fill="#2D1B69"/>
    <path d="M16 10V12M12 20C12 16 14 14 16 14C18 14 20 16 20 20" stroke="#8B5CF6" stroke-width="1.5"/>
    <circle cx="16" cy="20" r="2" fill="#DC2626"/>
  </g>
  
  <!-- Paramètres -->
  <g transform="translate(152, 8)">
    <rect width="32" height="32" rx="16" fill="#2D1B69"/>
    <circle cx="16" cy="16" r="6" stroke="#8B5CF6" stroke-width="1.5"/>
    <path d="M16 10V12M16 20V22M22 16H20M12 16H10M20 20L18.5 18.5M20 12L18.5 13.5M12 20L13.5 18.5M12 12L13.5 13.5" stroke="#8B5CF6" stroke-width="1.5"/>
  </g>
  
  <!-- Fermer -->
  <g transform="translate(200, 8)">
    <rect width="32" height="32" rx="16" fill="#2D1B69"/>
    <path d="M12 12L20 20M20 12L12 20" stroke="#8B5CF6" stroke-width="1.5"/>
  </g>
</svg>
