<?xml version="1.0" encoding="UTF-8"?>
<svg width="240" height="48" viewBox="0 0 240 48" fill="none" xmlns="http://www.w3.org/2000/svg">
  <!-- Jouer -->
  <g transform="translate(8, 8)">
    <rect width="32" height="32" rx="16" fill="#2D1B69"/>
    <path d="M14 12L20 16L14 20V12Z" fill="#8B5CF6"/>
  </g>
  
  <!-- Favoris -->
  <g transform="translate(56, 8)">
    <rect width="32" height="32" rx="16" fill="#2D1B69"/>
    <path d="M16 10L18 14H22L19 17L20 21L16 19L12 21L13 17L10 14H14L16 10Z" stroke="#8B5CF6" stroke-width="1.5"/>
  </g>
  
  <!-- Mise -->
  <g transform="translate(104, 8)">
    <rect width="32" height="32" rx="16" fill="#2D1B69"/>
    <circle cx="16" cy="16" r="6" stroke="#8B5CF6" stroke-width="1.5"/>
    <text x="16" y="19" text-anchor="middle" fill="#8B5CF6" font-family="Arial" font-size="10" font-weight="bold">€</text>
  </g>
  
  <!-- Classement -->
  <g transform="translate(152, 8)">
    <rect width="32" height="32" rx="16" fill="#2D1B69"/>
    <path d="M12 20H14V16H12V20ZM15 20H17V12H15V20ZM18 20H20V14H18V20Z" fill="#8B5CF6"/>
  </g>
  
  <!-- Partager -->
  <g transform="translate(200, 8)">
    <rect width="32" height="32" rx="16" fill="#2D1B69"/>
    <circle cx="12" cy="16" r="2" stroke="#8B5CF6" stroke-width="1.5"/>
    <circle cx="20" cy="12" r="2" stroke="#8B5CF6" stroke-width="1.5"/>
    <circle cx="20" cy="20" r="2" stroke="#8B5CF6" stroke-width="1.5"/>
    <path d="M14 15L18 13M14 17L18 19" stroke="#8B5CF6" stroke-width="1.5"/>
  </g>
</svg>
