<?xml version="1.0" encoding="UTF-8"?>
<svg width="400" height="400" viewBox="0 0 400 400" fill="none" xmlns="http://www.w3.org/2000/svg">
  <!-- Support Standard -->
  <g transform="translate(50, 50)">
    <rect width="300" height="80" rx="10" fill="#2D1B69"/>
    
    <!-- Icône support -->
    <circle cx="40" cy="40" r="25" fill="#1E1E1E"/>
    <path d="M25 40C25 30 55 30 55 40" stroke="#8B5CF6" stroke-width="2"/>
    <circle cx="40" cy="25" r="8" stroke="#8B5CF6" stroke-width="2"/>
    
    <!-- Texte -->
    <text x="80" y="35" fill="#8B5CF6" font-family="Arial" font-weight="bold" font-size="16">Support Prioritaire</text>
    <text x="80" y="55" fill="#6B7280" font-family="Arial" font-size="12">Réponse sous 24h</text>
    
    <!-- Badge standard -->
    <rect x="240" y="25" width="40" height="30" rx="15" fill="#8B5CF6"/>
    <text x="260" y="45" text-anchor="middle" fill="white" font-family="Arial" font-weight="bold" font-size="14">STD</text>
  </g>
  
  <!-- Support VIP -->
  <g transform="translate(50, 150)">
    <rect width="300" height="80" rx="10" fill="#4C1D95"/>
    
    <!-- Icône support -->
    <circle cx="40" cy="40" r="25" fill="#1E1E1E"/>
    <path d="M25 40C25 30 55 30 55 40" stroke="#A78BFA" stroke-width="2"/>
    <circle cx="40" cy="25" r="8" stroke="#A78BFA" stroke-width="2"/>
    
    <!-- Texte -->
    <text x="80" y="35" fill="#A78BFA" font-family="Arial" font-weight="bold" font-size="16">Support VIP 24/7</text>
    <text x="80" y="55" fill="#8B5CF6" font-family="Arial" font-size="12">Réponse immédiate</text>
    
    <!-- Badge VIP -->
    <rect x="240" y="25" width="40" height="30" rx="15" fill="#A78BFA"/>
    <text x="260" y="45" text-anchor="middle" fill="white" font-family="Arial" font-weight="bold" font-size="14">VIP</text>
  </g>
  
  <!-- Manager Dédié -->
  <g transform="translate(50, 250)">
    <rect width="300" height="80" rx="10" fill="#5B21B6"/>
    
    <!-- Icône manager -->
    <circle cx="40" cy="40" r="25" fill="#1E1E1E"/>
    <circle cx="40" cy="25" r="10" stroke="#C4B5FD" stroke-width="2"/>
    <path d="M25 45C25 35 55 35 55 45" stroke="#C4B5FD" stroke-width="2"/>
    
    <!-- Texte -->
    <text x="80" y="35" fill="#C4B5FD" font-family="Arial" font-weight="bold" font-size="16">Manager Dédié</text>
    <text x="80" y="55" fill="#A78BFA" font-family="Arial" font-size="12">Service personnalisé</text>
    
    <!-- Badge Elite -->
    <rect x="240" y="25" width="40" height="30" rx="15" fill="#C4B5FD"/>
    <text x="260" y="45" text-anchor="middle" fill="white" font-family="Arial" font-weight="bold" font-size="14">ELITE</text>
  </g>
  
  <!-- Coordonnées -->
  <g transform="translate(50, 350)">
    <!-- Email -->
    <text x="0" y="15" fill="#6B7280" font-family="Arial" font-size="12">infos@mybingoo.com</text>
    
    <!-- Téléphone -->
    <text x="150" y="15" fill="#6B7280" font-family="Arial" font-size="12">+228 90481428</text>
    
    <!-- Site web -->
    <text x="270" y="15" fill="#6B7280" font-family="Arial" font-size="12">mybingoo.com</text>
  </g>
</svg>
