<?xml version="1.0" encoding="UTF-8"?>
<svg width="192" height="48" viewBox="0 0 192 48" fill="none" xmlns="http://www.w3.org/2000/svg">
  <!-- Support 24/7 -->
  <g transform="translate(8, 8)">
    <rect width="32" height="32" rx="16" fill="#2D1B69"/>
    <circle cx="16" cy="16" r="8" stroke="#8B5CF6" stroke-width="1.5"/>
    <path d="M16 12V16L19 19" stroke="#8B5CF6" stroke-width="1.5"/>
    <text x="16" y="25" text-anchor="middle" fill="#8B5CF6" font-family="Arial" font-size="6" font-weight="bold">24/7</text>
  </g>
  
  <!-- Email : infos@mybingoo.com -->
  <g transform="translate(56, 8)">
    <rect width="32" height="32" rx="16" fill="#2D1B69"/>
    <path d="M10 14L16 18L22 14M8 14V20H24V14H8Z" stroke="#8B5CF6" stroke-width="1.5"/>
  </g>
  
  <!-- Téléphone : +228 90481428 -->
  <g transform="translate(104, 8)">
    <rect width="32" height="32" rx="16" fill="#2D1B69"/>
    <path d="M20 18L18 20C16 18 14 16 12 14L14 12L10 8L8 10C8 16 16 24 22 24L24 22L20 18Z" stroke="#8B5CF6" stroke-width="1.5"/>
  </g>
  
  <!-- Site web : mybingoo.com -->
  <g transform="translate(152, 8)">
    <rect width="32" height="32" rx="16" fill="#2D1B69"/>
    <circle cx="16" cy="16" r="8" stroke="#8B5CF6" stroke-width="1.5"/>
    <path d="M8 16H24M16 8C18 12 18 20 16 24M16 8C14 12 14 20 16 24" stroke="#8B5CF6" stroke-width="1.5"/>
  </g>
</svg>
