<?xml version="1.0" encoding="UTF-8"?>
<svg width="144" height="48" viewBox="0 0 144 48" fill="none" xmlns="http://www.w3.org/2000/svg">
  <!-- Jeux de Table -->
  <g transform="translate(8, 8)">
    <rect width="32" height="32" rx="16" fill="#2D1B69"/>
    <path d="M12 16C12 13 14 11 16 11C18 11 20 13 20 16" stroke="#8B5CF6" stroke-width="1.5"/>
    <circle cx="16" cy="14" r="2" fill="#8B5CF6"/>
    <rect x="11" y="18" width="10" height="6" rx="1" stroke="#8B5CF6" stroke-width="1.5"/>
  </g>
  
  <!-- Machines à Sous -->
  <g transform="translate(56, 8)">
    <rect width="32" height="32" rx="16" fill="#2D1B69"/>
    <rect x="12" y="12" width="8" height="8" rx="1" stroke="#8B5CF6" stroke-width="1.5"/>
    <path d="M14 16H18M16 14V18" stroke="#8B5CF6" stroke-width="1.5"/>
    <path d="M12 22L20 22" stroke="#8B5CF6" stroke-width="1.5"/>
  </g>
  
  <!-- Jeux Live -->
  <g transform="translate(104, 8)">
    <rect width="32" height="32" rx="16" fill="#2D1B69"/>
    <circle cx="16" cy="16" r="6" stroke="#8B5CF6" stroke-width="1.5"/>
    <rect x="14" y="14" width="4" height="4" rx="1" fill="#DC2626"/>
    <text x="16" y="24" text-anchor="middle" fill="#8B5CF6" font-family="Arial" font-size="6" font-weight="bold">LIVE</text>
  </g>
</svg>
